HIERARCHY
ROOT Hips
{
	OFFSET 0.000000 0.000000 0.000000
	CHANNELS 6 Xposition Yposition Zposition Zrotation Yrotation Xrotation 
	JOINT LowerBack
	{
		OFFSET 0.000000 0.000000 0.000000
		CHANNELS 3 Zrotation Yrotation Xrotation
		JOINT Spine
		{
			OFFSET 0.028270 2.035590 -0.193380
			CHANNELS 3 Zrotation Yrotation Xrotation
			JOINT Spine1
			{
				OFFSET 0.056720 2.048850 -0.042750
				CHANNELS 3 Zrotation Yrotation Xrotation
				JOINT Neck
				{
					OFFSET 0.000000 0.000000 0.000000
					CHANNELS 3 Zrotation Yrotation Xrotation
					JOINT Neck1
					{
						OFFSET -0.054170 1.746240 0.172020
						CHANNELS 3 Zrotation Yrotation Xrotation
						JOINT Head
						{
							OFFSET 0.104070 1.761360 -0.123970
							CHANNELS 3 Zrotation Yrotation Xrotation
							End Site
							{
								OFFSET 0.000000 0.000000 0.000000
							}
						}
					}
				}
				JOINT LeftShoulder
				{
					OFFSET 0.000000 0.000000 0.000000
					CHANNELS 3 Zrotation Yrotation Xrotation
					JOINT LeftArm
					{
						OFFSET 3.362410 1.200890 -0.311210
						CHANNELS 3 Zrotation Yrotation Xrotation
						JOINT LeftForeArm
						{
							OFFSET 4.983000 -0.000000 -0.000000
							CHANNELS 3 Zrotation Yrotation Xrotation
							JOINT LeftHand
							{
								OFFSET 3.483560 -0.000000 -0.000000
								CHANNELS 3 Zrotation Yrotation Xrotation
								JOINT LeftFingerBase
								{
									OFFSET 0.000000 0.000000 0.000000
									CHANNELS 3 Zrotation Yrotation Xrotation
									JOINT LeftHandIndex1
									{
										OFFSET 0.715260 -0.000000 -0.000000
										CHANNELS 3 Zrotation Yrotation Xrotation
										End Site
										{
											OFFSET 0.000000 0.000000 0.000000
										}
									}
								}
								JOINT LThumb
								{
									OFFSET 0.000000 0.000000 0.000000
									CHANNELS 3 Zrotation Yrotation Xrotation
									End Site
									{
										OFFSET 0.000000 0.000000 0.000000
									}
								}
							}
						}
					}
				}
				JOINT RightShoulder
				{
					OFFSET 0.000000 0.000000 0.000000
					CHANNELS 3 Zrotation Yrotation Xrotation
					JOINT RightArm
					{
						OFFSET -3.136600 1.374050 -0.404650
						CHANNELS 3 Zrotation Yrotation Xrotation
						JOINT RightForeArm
						{
							OFFSET -5.241900 -0.000000 -0.000000
							CHANNELS 3 Zrotation Yrotation Xrotation
							JOINT RightHand
							{
								OFFSET -3.444170 -0.000000 -0.000000
								CHANNELS 3 Zrotation Yrotation Xrotation
								JOINT RightFingerBase
								{
									OFFSET 0.000000 0.000000 0.000000
									CHANNELS 3 Zrotation Yrotation Xrotation
									JOINT RightHandIndex1
									{
										OFFSET -0.622530 -0.000000 -0.000000
										CHANNELS 3 Zrotation Yrotation Xrotation
										End Site
										{
											OFFSET 0.000000 0.000000 0.000000
										}
									}
								}
								JOINT RThumb
								{
									OFFSET 0.000000 0.000000 0.000000
									CHANNELS 3 Zrotation Yrotation Xrotation
									End Site
									{
										OFFSET 0.000000 0.000000 0.000000
									}
								}
							}
						}
					}
				}
			}
		}
	}
}
}
MOTION
Frames: 14
Frame Time: 0.008333
-9.261142 16.528461 -1.818270 107.636211 85.844419 131.970533 -0.133991 -2.595831 2.358237 -1.205208 -2.657551 -2.103120 -8.102099 -2.647972 1.353935 10.663168 -6.513278 -6.335688 -4.085834 -0.302591 0.127438 0.000000 0.000000 0.000000 1.673018 2.153195 4.008291 -19.588123 -22.993073 -2.667232 -1.389337 -67.618726 0.066232 -13.625973 -2.191231 0.299123 0.090056 0.291743 0.000000 0.000000 0.000000 0.000000 0.000000 0.000000 0.000000 20.090397 -5.236042 1.872520 66.676614 -4.963427 5.593862 3.464528 32.315082 0.016046 10.969055 6.917206 0.672520 0.005755 -0.076933 -0.000000 0.000000 0.000000 0.000000 0.000000 0.000000 0.000000 
-8.992129 16.494521 -1.780971 106.856586 85.812436 131.204535 0.268002 -2.541124 2.145443 -1.120095 -2.625639 -2.141069 -8.107001 -2.615671 1.395923 10.455455 -6.481519 -6.372595 -4.128831 -0.305744 0.121089 0.000000 0.000000 0.000000 1.354419 2.518432 4.005586 -19.479326 -22.625412 -2.564330 -1.378784 -68.009436 0.065549 -13.632831 -2.271733 0.308531 0.086767 0.288638 0.000000 0.000000 0.000000 0.000000 0.000000 0.000000 0.000000 20.079289 -5.180741 1.842704 66.615941 -4.977979 5.061187 3.505106 31.912884 0.016075 10.873562 6.895118 0.664322 0.007860 -0.076397 -0.000000 0.000000 0.000000 0.000000 0.000000 0.000000 0.000000 
-8.722493 16.465897 -1.741476 106.338350 85.798592 130.684561 0.684336 -2.486561 1.958864 -1.031739 -2.594702 -2.175530 -8.111555 -2.584725 1.431208 10.254608 -6.407170 -6.398983 -4.169862 -0.308772 0.116905 0.000000 0.000000 0.000000 1.020091 2.862850 4.011909 -19.490437 -22.187898 -2.346405 -1.380235 -68.314404 0.064627 -13.653838 -2.356305 0.318544 0.082334 0.283957 0.000000 0.000000 0.000000 0.000000 0.000000 0.000000 0.000000 20.055907 -5.081980 1.815230 66.580770 -4.922038 4.452218 3.544606 31.426466 0.016110 10.755502 6.866962 0.654223 0.009999 -0.076030 -0.000000 0.000000 0.000000 0.000000 0.000000 0.000000 0.000000 
-8.453460 16.442881 -1.699718 106.137749 85.799719 130.449475 1.105629 -2.435296 1.818323 -0.941784 -2.566704 -2.202179 -8.113160 -2.557044 1.459723 10.064306 -6.289136 -6.411240 -4.205925 -0.311462 0.115739 0.000000 0.000000 0.000000 0.678234 3.185123 4.026218 -19.616171 -21.697844 -2.010216 -1.393973 -68.517995 0.063466 -13.687633 -2.443172 0.329063 0.076921 0.277774 0.000000 0.000000 0.000000 0.000000 0.000000 0.000000 0.000000 20.010221 -4.940941 1.789594 66.580347 -4.785976 3.780098 3.581812 30.856407 0.016135 10.617792 6.833265 0.642524 0.012086 -0.075806 -0.000000 0.000000 0.000000 0.000000 0.000000 0.000000 0.000000 
-8.186216 16.425682 -1.655332 106.191283 85.806814 130.431640 1.510026 -2.389631 1.728769 -0.854591 -2.542507 -2.220677 -8.109753 -2.533664 1.478612 9.891553 -6.123239 -6.401681 -4.235359 -0.313771 0.119776 0.000000 0.000000 0.000000 0.354604 3.461057 4.047043 -19.873833 -21.132274 -1.558012 -1.419352 -68.622612 0.062060 -13.737706 -2.526511 0.339285 0.070739 0.270014 0.000000 0.000000 0.000000 0.000000 0.000000 0.000000 0.000000 19.940243 -4.755457 1.766140 66.621419 -4.572533 3.058975 3.615253 30.215435 0.016146 10.467727 6.794141 0.629724 0.014015 -0.075711 -0.000000 0.000000 0.000000 0.000000 0.000000 0.000000 0.000000 
-7.921638 16.414504 -1.608443 106.536766 85.824821 130.674141 1.895670 -2.350579 1.686755 -0.770046 -2.522767 -2.231274 -8.099876 -2.515228 1.490312 9.739417 -5.915726 -6.368908 -4.256006 -0.315560 0.129591 0.000000 0.000000 0.000000 0.052600 3.694086 4.072265 -20.254428 -20.507753 -0.989341 -1.456473 -68.617717 0.060407 -13.802225 -2.602250 0.348809 0.063925 0.260745 -0.000000 0.000000 0.000000 0.000000 0.000000 0.000000 0.000000 19.840178 -4.533967 1.743355 66.703768 -4.273059 2.318238 3.644570 29.518318 0.016137 10.313338 6.751126 0.616323 0.015719 -0.075710 -0.000000 0.000000 0.000000 0.000000 0.000000 0.000000 0.000000 
-7.660310 16.409419 -1.559109 107.166993 85.857996 131.179621 2.259151 -2.318121 1.683079 -0.688474 -2.507299 -2.235709 -8.082583 -2.501583 1.496438 9.611046 -5.674443 -6.311526 -4.266593 -0.316773 0.145846 0.000000 0.000000 0.000000 -0.220232 3.880837 4.099442 -20.756238 -19.824926 -0.307496 -1.505021 -68.501374 0.058497 -13.881944 -2.664182 0.356937 0.056628 0.249976 -0.000000 0.000000 0.000000 0.000000 0.000000 0.000000 0.000000 19.708357 -4.285798 1.719989 66.822436 -3.885142 1.592937 3.669585 28.789054 0.016108 10.164266 6.706651 0.603322 0.017140 -0.075775 -0.000000 0.000000 0.000000 0.000000 0.000000 0.000000 0.000000 
-7.402590 16.410426 -1.507244 108.006674 85.906196 131.884222 2.591435 -2.291818 1.707180 -0.611664 -2.495381 -2.235195 -8.057856 -2.491849 1.501024 9.510713 -5.409832 -6.232285 -4.266284 -0.317343 0.167978 0.000000 0.000000 0.000000 -0.463758 4.037220 4.126112 -21.359948 -19.111569 0.486788 -1.565242 -68.262023 0.056329 -13.974364 -2.707589 0.362963 0.048948 0.237826 -0.000000 0.000000 0.000000 0.000000 0.000000 0.000000 0.000000 19.548603 -4.021710 1.693338 66.971077 -3.409588 0.918320 3.689929 28.062066 0.016058 10.033027 6.660852 0.591419 0.018191 -0.075865 -0.000000 0.000000 0.000000 0.000000 0.000000 0.000000 0.000000 
-7.148557 16.417404 -1.452898 109.000801 85.972132 132.742299 2.888582 -2.270454 1.748957 -0.540386 -2.485849 -2.231696 -8.025594 -2.484845 1.505063 9.439430 -5.136633 -6.133168 -4.255009 -0.317286 0.195688 0.000000 0.000000 0.000000 -0.670451 4.156141 4.149637 -22.066541 -18.355056 1.383938 -1.636299 -67.906889 0.053889 -14.081637 -2.725962 0.366191 0.041036 0.224305 0.000000 0.000000 0.000000 0.000000 0.000000 0.000000 0.000000 19.363637 -3.756110 1.662849 67.140096 -2.850125 0.339650 3.705687 27.374495 0.015999 9.927399 6.617429 0.581315 0.018853 -0.075985 -0.000000 0.000000 0.000000 0.000000 0.000000 0.000000 0.000000 
-6.898112 16.430187 -1.395873 109.991828 86.052143 133.605205 3.137230 -2.252543 1.799094 -0.477647 -2.476904 -2.226808 -7.986078 -2.478696 1.509646 9.399484 -4.876391 -6.019028 -4.233320 -0.316641 0.227820 0.000000 0.000000 0.000000 -0.829396 4.227912 4.166776 -22.877125 -17.536243 2.368868 -1.716792 -67.446522 0.051154 -14.206070 -2.713077 0.365817 0.033087 0.209440 0.000000 0.000000 0.000000 0.000000 0.000000 0.000000 0.000000 19.162070 -3.509579 1.628633 67.318069 -2.207349 -0.086806 3.716748 26.763381 0.015948 9.849108 6.583633 0.573811 0.019155 -0.076180 -0.000000 0.000000 0.000000 0.000000 0.000000 0.000000 0.000000 
-6.650902 16.448670 -1.336291 110.938577 86.149291 134.442587 3.341500 -2.236459 1.848729 -0.423252 -2.467507 -2.220432 -7.942549 -2.471870 1.520915 9.389729 -4.625194 -5.899627 -4.202563 -0.315395 0.261484 0.000000 0.000000 0.000000 -0.972977 4.318456 4.179524 -23.724959 -16.755852 3.449994 -1.809637 -66.844272 0.048174 -14.336729 -2.671402 0.361743 0.024830 0.193660 0.000000 0.000000 0.000000 0.000000 0.000000 0.000000 0.000000 18.952599 -3.273732 1.585549 67.498672 -1.514302 -0.366107 3.722348 26.295627 0.015891 9.820936 6.546953 0.569007 0.018874 -0.076365 -0.000000 0.000000 0.000000 0.000000 0.000000 0.000000 0.000000 
-6.406631 16.472626 -1.273753 111.589743 86.254120 135.010217 3.481204 -2.220471 1.890618 -0.381636 -2.455331 -2.214987 -7.894619 -2.462223 1.535056 9.409858 -4.415403 -5.779628 -4.164510 -0.313702 0.295601 0.000000 0.000000 0.000000 -1.072010 4.375139 4.183873 -24.646858 -15.923141 4.592399 -1.911077 -66.141549 0.044903 -14.483267 -2.593672 0.353265 0.016614 0.176835 0.000000 0.000000 0.000000 0.000000 0.000000 0.000000 0.000000 18.746264 -3.079861 1.538327 67.667182 -0.763783 -0.419200 3.722108 25.995432 0.015868 9.823669 6.526194 0.567504 0.018202 -0.076731 -0.000000 0.000000 0.000000 0.000000 0.000000 0.000000 0.000000 
-6.164840 16.501884 -1.208287 111.817574 86.363649 135.189560 3.554450 -2.203212 1.917672 -0.353678 -2.439271 -2.211310 -7.844365 -2.448455 1.553341 9.455988 -4.251523 -5.667631 -4.121315 -0.311639 0.327672 0.000000 0.000000 0.000000 -1.140884 4.421504 4.181127 -25.611780 -15.069889 5.785057 -2.021760 -65.330594 0.041371 -14.641104 -2.481996 0.340386 0.008312 0.159258 0.000000 0.000000 0.000000 0.000000 0.000000 0.000000 0.000000 18.551860 -2.928463 1.486414 67.814726 0.020500 -0.235569 3.714814 25.910529 0.015883 9.858444 6.519699 0.569102 0.017078 -0.077336 -0.000000 0.000000 0.000000 0.000000 0.000000 0.000000 0.000000 
-5.925150 16.536253 -1.139843 111.470581 86.472583 134.837377 3.558121 -2.183566 1.923683 -0.340307 -2.418331 -2.210900 -7.792782 -2.429580 1.574177 9.522761 -4.142696 -5.570250 -4.075233 -0.309319 0.355844 0.000000 0.000000 0.000000 -1.182933 4.454007 4.171715 -26.611705 -14.184908 7.005228 -2.140784 -64.421915 0.037594 -14.809638 -2.337973 0.323102 -0.000080 0.141131 0.000000 0.000000 0.000000 0.000000 0.000000 0.000000 0.000000 18.376392 -2.825664 1.431858 67.931599 0.824544 0.204305 3.699086 26.071435 0.015953 9.913207 6.533023 0.573602 0.015547 -0.078327 -0.000000 0.000000 0.000000 0.000000 0.000000 0.000000 0.000000 
